<svg id="Layer_1" data-name="Layer 1" xmlns="http://www.w3.org/2000/svg" viewBox="0 0 11.54 11.23"><defs><style>.cls-1{fill:#f6f078;}</style></defs><path class="cls-1" d="M-56.63,1152.41l1.23.35-1.22.31a5,5,0,0,0-3.61,3.61l-.31,1.22-.35-1.23A5.4,5.4,0,0,0-64.6,1153l-1.23-.34,1.22-.31a5,5,0,0,0,3.61-3.62l.31-1.21.35,1.22A5.37,5.37,0,0,0-56.63,1152.41Z" transform="translate(65.83 -1147.47)"/><path class="cls-1" d="M-54.76,1156.56l.47.13-.47.12a2,2,0,0,0-1.42,1.42l-.13.47-.12-.47a2,2,0,0,0-1.42-1.42l-.47-.12.47-.13a2,2,0,0,0,1.42-1.41l.12-.48.13.48A2,2,0,0,0-54.76,1156.56Z" transform="translate(65.83 -1147.47)"/></svg>