<svg xmlns="http://www.w3.org/2000/svg" xmlns:xlink="http://www.w3.org/1999/xlink" viewBox="0 0 211.51 131.73"><defs><style>.cls-1{isolation:isolate;}.cls-10,.cls-100,.cls-101,.cls-102,.cls-103,.cls-104,.cls-105,.cls-106,.cls-107,.cls-108,.cls-109,.cls-11,.cls-110,.cls-111,.cls-112,.cls-117,.cls-118,.cls-12,.cls-122,.cls-123,.cls-124,.cls-125,.cls-126,.cls-127,.cls-128,.cls-13,.cls-130,.cls-131,.cls-132,.cls-133,.cls-134,.cls-135,.cls-136,.cls-137,.cls-138,.cls-14,.cls-148,.cls-149,.cls-15,.cls-150,.cls-151,.cls-152,.cls-155,.cls-156,.cls-157,.cls-158,.cls-16,.cls-160,.cls-17,.cls-18,.cls-19,.cls-2,.cls-20,.cls-21,.cls-22,.cls-23,.cls-24,.cls-25,.cls-26,.cls-27,.cls-28,.cls-29,.cls-3,.cls-30,.cls-31,.cls-32,.cls-33,.cls-34,.cls-35,.cls-36,.cls-37,.cls-39,.cls-4,.cls-40,.cls-41,.cls-42,.cls-43,.cls-44,.cls-45,.cls-46,.cls-47,.cls-48,.cls-49,.cls-50,.cls-51,.cls-52,.cls-53,.cls-54,.cls-55,.cls-56,.cls-57,.cls-58,.cls-59,.cls-60,.cls-61,.cls-62,.cls-63,.cls-64,.cls-65,.cls-66,.cls-67,.cls-73,.cls-74,.cls-75,.cls-76,.cls-77,.cls-78,.cls-79,.cls-80,.cls-81,.cls-82,.cls-83,.cls-84,.cls-85,.cls-86,.cls-87,.cls-88,.cls-89,.cls-90,.cls-91,.cls-92,.cls-95,.cls-97,.cls-98,.cls-99{fill-rule:evenodd;}.cls-2{fill:url(#Безымянный_градиент_182);}.cls-3{fill:#400e86;}.cls-4{fill:#611d93;}.cls-133,.cls-135,.cls-145,.cls-153,.cls-159,.cls-33,.cls-4,.cls-55,.cls-75,.cls-98{opacity:0.5;}.cls-115,.cls-117,.cls-118,.cls-121,.cls-129,.cls-138,.cls-145,.cls-148,.cls-149,.cls-152,.cls-153,.cls-28,.cls-33,.cls-4,.cls-55,.cls-71,.cls-72,.cls-75,.cls-98{mix-blend-mode:multiply;}.cls-5{fill:url(#Безымянный_градиент_214);}.cls-10,.cls-6,.cls-7,.cls-9{opacity:0.2;}.cls-10,.cls-119,.cls-120,.cls-133,.cls-135,.cls-146,.cls-147,.cls-159,.cls-6,.cls-7,.cls-9{mix-blend-mode:screen;}.cls-6{fill:url(#Безымянный_градиент_218);}.cls-7{fill:url(#Безымянный_градиент_173);}.cls-8{fill:url(#Безымянный_градиент_214-2);}.cls-9{fill:url(#Безымянный_градиент_218-2);}.cls-10{fill:url(#Безымянный_градиент_173-2);}.cls-11{fill:url(#Безымянный_градиент_188);}.cls-12{fill:url(#Безымянный_градиент_37);}.cls-13{fill:#6829a4;}.cls-14{fill:url(#Безымянный_градиент_188-2);}.cls-15{fill:#4a0e72;}.cls-16{fill:url(#Безымянный_градиент_188-3);}.cls-17{fill:url(#Безымянный_градиент_182-2);}.cls-18{fill:#740e86;}.cls-19{fill:url(#Безымянный_градиент_325);}.cls-20{fill:url(#Безымянный_градиент_326);}.cls-21{fill:#a70047;}.cls-22{fill:#f2f0f5;}.cls-112,.cls-22,.cls-38,.cls-78{mix-blend-mode:soft-light;}.cls-23{fill:url(#Безымянный_градиент_337);}.cls-24{fill:url(#Безымянный_градиент_72);}.cls-25{fill:#5440be;}.cls-26{fill:#9c75d8;}.cls-27{fill:#6654c5;}.cls-129,.cls-138,.cls-154,.cls-28,.cls-75,.cls-97{fill:#614881;}.cls-121,.cls-129,.cls-28{opacity:0.3;}.cls-29{fill:url(#Безымянный_градиент_162);}.cls-30{fill:url(#Безымянный_градиент_365);}.cls-31{fill:url(#Безымянный_градиент_380);}.cls-32{fill:url(#Безымянный_градиент_108);}.cls-145,.cls-33{fill:#b15a93;}.cls-34{fill:url(#Безымянный_градиент_365-2);}.cls-35{fill:url(#Безымянный_градиент_377);}.cls-36{fill:url(#Безымянный_градиент_72-2);}.cls-37{fill:url(#Безымянный_градиент_164);}.cls-38{font-size:4.56px;fill:#ffdded;font-family:Poppins-Regular, Poppins Regular;}.cls-39{fill:url(#Безымянный_градиент_10);}.cls-40{fill:url(#Безымянный_градиент_7);}.cls-41{fill:#598800;}.cls-42{fill:#5e9339;}.cls-43{fill:#97b368;}.cls-44{fill:#b1cc00;}.cls-45{fill:#e5cc00;}.cls-46{fill:#ead631;}.cls-47{fill:url(#Безымянный_градиент_10-2);}.cls-48{fill:url(#Безымянный_градиент_7-2);}.cls-49{fill:#005d88;}.cls-50{fill:#005ad9;}.cls-51{fill:#5b5bff;}.cls-52{fill:#8d91ff;}.cls-53{fill:#c2baff;}.cls-54{fill:#ff8df4;}.cls-55{fill:#914881;}.cls-56{fill:url(#Безымянный_градиент_10-3);}.cls-57{fill:url(#Безымянный_градиент_7-3);}.cls-58{fill:#88005b;}.cls-59{fill:#d9005b;}.cls-60{fill:#ff665b;}.cls-61{fill:#ff928d;}.cls-62{fill:#ffc4ba;}.cls-63{fill:#ffd88d;}.cls-64{fill:url(#Безымянный_градиент_10-4);}.cls-65{fill:url(#Безымянный_градиент_12);}.cls-66{fill:url(#Безымянный_градиент_26);}.cls-67{fill:url(#Безымянный_градиент_118);}.cls-68{font-size:5.18px;fill:#642f4d;font-family:ShinyFlakes-Regular, Shiny Flakes;}.cls-69{letter-spacing:-0.05em;}.cls-70{letter-spacing:-0.01em;}.cls-71{fill:url(#Безымянный_градиент_75);}.cls-72{fill:url(#Безымянный_градиент_75-2);}.cls-73{fill:url(#Безымянный_градиент_118-2);}.cls-74{fill:url(#Безымянный_градиент_26-2);}.cls-76{fill:url(#Безымянный_градиент_97);}.cls-77{fill:url(#Безымянный_градиент_85);}.cls-113,.cls-78,.cls-80{fill:#fff;}.cls-78{opacity:0.6;}.cls-79{fill:url(#Безымянный_градиент_72-3);}.cls-81{fill:url(#Безымянный_градиент_310);}.cls-82{fill:url(#Безымянный_градиент_106);}.cls-83{fill:#ff6bff;}.cls-84{fill:url(#Безымянный_градиент_132);}.cls-85{fill:url(#Безымянный_градиент_94);}.cls-86{fill:url(#Безымянный_градиент_94-2);}.cls-87{fill:#ddaee5;}.cls-88{fill:#f0dbf4;}.cls-89{fill:#ceecf4;}.cls-90{fill:#cec4f4;}.cls-91{fill:#ced1f4;}.cls-92{fill:#ffc4f4;}.cls-93{fill:url(#Безымянный_градиент_94-3);}.cls-94{fill:url(#Безымянный_градиент_132-2);}.cls-95{fill:url(#Безымянный_градиент_132-3);}.cls-96{fill:#130025;}.cls-98{fill:#6148b0;}.cls-99{fill:url(#Безымянный_градиент_72-4);}.cls-100{fill:#a900ff;}.cls-101{fill:#f0f;}.cls-102{fill:#ff60ff;}.cls-103{fill:#ff86ff;}.cls-104{fill:#ffb0ff;}.cls-105{fill:#ffdbff;}.cls-106{fill:#2f56ff;}.cls-107{fill:#2e8eff;}.cls-108{fill:#7f97ff;}.cls-109{fill:#cec2ff;}.cls-110{fill:#2fe7ff;}.cls-111{fill:#b0bfff;}.cls-112{fill:#ddc2ff;}.cls-114{fill:url(#Безымянный_градиент_210);}.cls-115,.cls-117,.cls-118,.cls-152{opacity:0.8;}.cls-116{fill:url(#Безымянный_градиент_282);}.cls-117{fill:url(#Безымянный_градиент_253);}.cls-118{fill:url(#Безымянный_градиент_253-2);}.cls-119{fill:url(#Безымянный_градиент_276);}.cls-120{fill:url(#Безымянный_градиент_276-2);}.cls-121{fill:url(#Безымянный_градиент_279);}.cls-122{fill:url(#Безымянный_градиент_227);}.cls-123{fill:url(#Безымянный_градиент_244);}.cls-124{fill:url(#Безымянный_градиент_234);}.cls-125{fill:url(#Безымянный_градиент_240);}.cls-126{fill:url(#Безымянный_градиент_240-2);}.cls-127{fill:url(#Безымянный_градиент_26-3);}.cls-128{fill:url(#Безымянный_градиент_26-4);}.cls-130{fill:url(#Безымянный_градиент_151);}.cls-131{fill:url(#Безымянный_градиент_157);}.cls-132{fill:url(#Безымянный_градиент_154);}.cls-133{fill:url(#Безымянный_градиент_398);}.cls-134{fill:url(#Безымянный_градиент_80);}.cls-135{fill:url(#Безымянный_градиент_399);}.cls-136{fill:url(#Безымянный_градиент_184);}.cls-137{fill:#9f2e45;}.cls-139{fill:url(#Безымянный_градиент_337-2);}.cls-140{fill:url(#Безымянный_градиент_72-5);}.cls-141{fill:#7c77ff;}.cls-142{fill:url(#Безымянный_градиент_449);}.cls-143{fill:url(#Безымянный_градиент_158);}.cls-144{fill:#9a0054;}.cls-146{fill:url(#Безымянный_градиент_55);}.cls-147{fill:url(#Безымянный_градиент_55-2);}.cls-148{fill:url(#Безымянный_градиент_75-3);}.cls-149{fill:url(#Безымянный_градиент_75-4);}.cls-150{fill:url(#Безымянный_градиент_134);}.cls-151{fill:url(#Безымянный_градиент_127);}.cls-152{fill:url(#Безымянный_градиент_87);}.cls-155{fill:url(#Безымянный_градиент_95);}.cls-156{fill:url(#Безымянный_градиент_109);}.cls-157{fill:url(#Безымянный_градиент_137);}.cls-158{fill:url(#Безымянный_градиент_141);}.cls-159{fill:url(#Безымянный_градиент_146);}.cls-160{fill:url(#Безымянный_градиент_170);}</style><linearGradient id="Безымянный_градиент_182" x1="-19.76" y1="1520.62" x2="-19.76" y2="1484.86" gradientTransform="matrix(0.98, 0.22, -0.22, 0.98, 229.01, -355.59)" gradientUnits="userSpaceOnUse"><stop offset="0" stop-color="#590e86"/><stop offset="0.98" stop-color="#4d2b90"/></linearGradient><radialGradient id="Безымянный_градиент_214" cx="-129.28" cy="1104.22" r="25.64" gradientTransform="translate(977.33 988.57) rotate(76.97)" gradientUnits="userSpaceOnUse"><stop offset="0.02" stop-color="#462490"/><stop offset="0.67" stop-color="#470189"/><stop offset="1" stop-color="#b14a48"/></radialGradient><radialGradient id="Безымянный_градиент_218" cx="-135.97" cy="1107.06" r="7.89" gradientTransform="translate(971.79 977.01) rotate(76.3)" gradientUnits="userSpaceOnUse"><stop offset="0" stop-color="#005eff"/><stop offset="0.03" stop-color="#0058ef"/><stop offset="0.14" stop-color="#0044b8"/><stop offset="0.25" stop-color="#003287"/><stop offset="0.37" stop-color="#00225d"/><stop offset="0.48" stop-color="#00163c"/><stop offset="0.6" stop-color="#000c21"/><stop offset="0.72" stop-color="#00050f"/><stop offset="0.85" stop-color="#000104"/><stop offset="0.99"/></radialGradient><radialGradient id="Безымянный_градиент_173" cx="-97.69" cy="502.47" r="7.9" gradientTransform="matrix(1, 0, 0, 1.2, -30.37, 501.56)" gradientUnits="userSpaceOnUse"><stop offset="0" stop-color="#009cff"/><stop offset="0.03" stop-color="#0092ef"/><stop offset="0.14" stop-color="#0071b8"/><stop offset="0.25" stop-color="#005287"/><stop offset="0.37" stop-color="#00395d"/><stop offset="0.48" stop-color="#00243c"/><stop offset="0.6" stop-color="#001421"/><stop offset="0.72" stop-color="#00090f"/><stop offset="0.85" stop-color="#000204"/><stop offset="0.99"/></radialGradient><radialGradient id="Безымянный_градиент_214-2" cx="-46.2" cy="225.25" r="19.81" gradientTransform="matrix(0.86, -0.5, 0.5, 0.86, 27.4, -194.8)" xlink:href="#Безымянный_градиент_214"/><radialGradient id="Безымянный_градиент_218-2" cx="-51.38" cy="227.44" r="6.1" gradientTransform="translate(45.3 1030.32) rotate(55.97)" xlink:href="#Безымянный_градиент_218"/><radialGradient id="Безымянный_градиент_173-2" cx="295.2" cy="-157.28" r="6.1" gradientTransform="matrix(0.63, -0.78, 0.94, 0.75, -205.1, 1458.56)" xlink:href="#Безымянный_градиент_173"/><linearGradient id="Безымянный_градиент_188" x1="97.79" y1="1863.62" x2="97.79" y2="1845.49" gradientTransform="matrix(0.92, 0.39, -0.39, 0.92, 788.99, -1688.6)" gradientUnits="userSpaceOnUse"><stop offset="0" stop-color="#590e86"/><stop offset="0.98" stop-color="#462490"/></linearGradient><linearGradient id="Безымянный_градиент_37" x1="-88.29" y1="1290.88" x2="-88.29" y2="1272.69" gradientTransform="matrix(1, 0.07, -0.07, 1, 346.93, -1211.73)" gradientUnits="userSpaceOnUse"><stop offset="0" stop-color="#2c3bae"/><stop offset="0.98" stop-color="#4624a9"/></linearGradient><linearGradient id="Безымянный_градиент_188-2" x1="-120.5" y1="503.34" x2="-120.5" y2="483.1" gradientTransform="translate(-102.45 -425.85) rotate(-29.18)" xlink:href="#Безымянный_градиент_188"/><linearGradient id="Безымянный_градиент_188-3" x1="2780.92" y1="2126.81" x2="2780.92" y2="2115.85" gradientTransform="matrix(-0.92, -0.39, -0.39, 0.92, 3435.97, -874.61)" xlink:href="#Безымянный_градиент_188"/><linearGradient id="Безымянный_градиент_182-2" x1="11.3" y1="1785.97" x2="11.3" y2="1772.11" gradientTransform="translate(515.71 -493.99) rotate(25.28)" xlink:href="#Безымянный_градиент_182"/><radialGradient id="Безымянный_градиент_325" cx="53.65" cy="1852.02" r="7.29" gradientTransform="matrix(0.89, 0.45, -0.45, 0.89, 575.28, -565.83)" gradientUnits="userSpaceOnUse"><stop offset="0" stop-color="#ff224d"/><stop offset="0.01" stop-color="#fd214d"/><stop offset="0.24" stop-color="#e41353"/><stop offset="0.46" stop-color="#d10857"/><stop offset="0.7" stop-color="#c70259"/><stop offset="0.97" stop-color="#c3005a"/></radialGradient><linearGradient id="Безымянный_градиент_326" x1="53.32" y1="1863.68" x2="53.32" y2="1846.38" gradientTransform="matrix(0.89, 0.45, -0.45, 0.89, 575.28, -565.83)" gradientUnits="userSpaceOnUse"><stop offset="0" stop-color="#ff427e"/><stop offset="1" stop-color="#ff5973"/></linearGradient><linearGradient id="Безымянный_градиент_337" x1="67.37" y1="1868.29" x2="89.03" y2="1846.62" gradientTransform="matrix(0.89, 0.45, -0.45, 0.89, 575.28, -565.83)" gradientUnits="userSpaceOnUse"><stop offset="0.03" stop-color="#9042ff"/><stop offset="1" stop-color="#6e7cff"/></linearGradient><linearGradient id="Безымянный_градиент_72" x1="66.76" y1="1866.63" x2="89.64" y2="1843.75" gradientTransform="matrix(0.89, 0.45, -0.45, 0.89, 575.28, -565.83)" gradientUnits="userSpaceOnUse"><stop offset="0.03" stop-color="#bb86ff"/><stop offset="1" stop-color="#7c9fff"/></linearGradient><linearGradient id="Безымянный_градиент_162" x1="142.01" y1="77.64" x2="145.17" y2="72.18" gradientUnits="userSpaceOnUse"><stop offset="0.03" stop-color="#ffbd00"/><stop offset="1" stop-color="#ffe727"/></linearGradient><linearGradient id="Безымянный_градиент_365" x1="-121.15" y1="1211.8" x2="-121.15" y2="1164.74" gradientUnits="userSpaceOnUse"><stop offset="0" stop-color="#2d2f76"/><stop offset="0.98" stop-color="#531d68"/></linearGradient><linearGradient id="Безымянный_градиент_380" x1="-121.58" y1="1211.67" x2="-121.58" y2="1164.6" gradientUnits="userSpaceOnUse"><stop offset="0" stop-color="#593c9c"/><stop offset="0.98" stop-color="#5c0c77"/></linearGradient><linearGradient id="Безымянный_градиент_108" x1="-122.21" y1="1210.87" x2="-122.21" y2="1165.39" gradientUnits="userSpaceOnUse"><stop offset="0" stop-color="#4aa0ff"/><stop offset="1" stop-color="#00cea9"/></linearGradient><linearGradient id="Безымянный_градиент_365-2" x1="-125.62" y1="1211.8" x2="-125.62" y2="1164.74" xlink:href="#Безымянный_градиент_365"/><linearGradient id="Безымянный_градиент_377" x1="-126.05" y1="1211.67" x2="-126.05" y2="1164.6" gradientUnits="userSpaceOnUse"><stop offset="0.02" stop-color="#6b2289"/><stop offset="1" stop-color="#594a9c"/></linearGradient><linearGradient id="Безымянный_градиент_72-2" x1="-116.88" y1="1212.1" x2="-116.88" y2="1163.96" gradientTransform="matrix(1, 0, 0, 1, 0, 0)" xlink:href="#Безымянный_градиент_72"/><linearGradient id="Безымянный_градиент_164" x1="133.31" y1="77.78" x2="135.88" y2="73.33" gradientUnits="userSpaceOnUse"><stop offset="0" stop-color="#fe0173"/><stop offset="1" stop-color="#d842ff"/></linearGradient><linearGradient id="Безымянный_градиент_10" x1="560.68" y1="-384.99" x2="560.68" y2="-426.89" gradientTransform="translate(-55.87 1825.26) rotate(-62.42)" gradientUnits="userSpaceOnUse"><stop offset="0.02" stop-color="#c289b0"/><stop offset="1" stop-color="#ff93ac"/></linearGradient><linearGradient id="Безымянный_градиент_7" x1="560.75" y1="-385.13" x2="560.75" y2="-427.03" gradientTransform="translate(-55.87 1825.26) rotate(-62.42)" gradientUnits="userSpaceOnUse"><stop offset="0.02" stop-color="#ffdbe7"/><stop offset="1" stop-color="#ffe8de"/></linearGradient><linearGradient id="Безымянный_градиент_10-2" x1="564.13" y1="-394.03" x2="564.13" y2="-426.55" xlink:href="#Безымянный_градиент_10"/><linearGradient id="Безымянный_градиент_7-2" x1="564.16" y1="-394.19" x2="564.16" y2="-426.71" xlink:href="#Безымянный_градиент_7"/><linearGradient id="Безымянный_градиент_10-3" x1="566.47" y1="-404.6" x2="566.47" y2="-427.03" xlink:href="#Безымянный_градиент_10"/><linearGradient id="Безымянный_градиент_7-3" x1="566.47" y1="-404.76" x2="566.47" y2="-427.19" xlink:href="#Безымянный_градиент_7"/><linearGradient id="Безымянный_градиент_10-4" x1="566.47" y1="-410.13" x2="566.47" y2="-428.18" xlink:href="#Безымянный_градиент_10"/><linearGradient id="Безымянный_градиент_12" x1="566.47" y1="-410.29" x2="566.47" y2="-428.34" gradientTransform="translate(-55.87 1825.26) rotate(-62.42)" gradientUnits="userSpaceOnUse"><stop offset="0.02" stop-color="#ffe5ee"/><stop offset="1" stop-color="#ffe8de"/></linearGradient><linearGradient id="Безымянный_градиент_26" x1="539.67" y1="-422.44" x2="539.67" y2="-425.83" gradientTransform="translate(-55.87 1825.26) rotate(-62.42)" gradientUnits="userSpaceOnUse"><stop offset="0.02" stop-color="#b1acc7"/><stop offset="1" stop-color="#cccae2"/></linearGradient><linearGradient id="Безымянный_градиент_118" x1="539.67" y1="-423.15" x2="539.67" y2="-425.12" gradientTransform="translate(-55.87 1825.26) rotate(-62.42)" gradientUnits="userSpaceOnUse"><stop offset="0" stop-color="#a6a3cc"/><stop offset="0.98" stop-color="#8c7dac"/></linearGradient><radialGradient id="Безымянный_градиент_75" cx="995.97" cy="1286.46" r="22.84" gradientTransform="translate(-3130.52 -19.54) scale(3.24 0.11)" gradientUnits="userSpaceOnUse"><stop offset="0" stop-color="#364a9f"/><stop offset="0.04" stop-color="#485aa8"/><stop offset="0.17" stop-color="#7886bf"/><stop offset="0.3" stop-color="#a2abd2"/><stop offset="0.43" stop-color="#c3c9e3"/><stop offset="0.56" stop-color="#dee1ef"/><stop offset="0.69" stop-color="#f0f2f8"/><stop offset="0.83" stop-color="#fbfcfd"/><stop offset="0.99" stop-color="#fff"/></radialGradient><radialGradient id="Безымянный_градиент_75-2" cx="1020.99" cy="1286.46" r="22.31" gradientTransform="translate(-2358.2 -19.54) scale(2.46 0.11)" xlink:href="#Безымянный_градиент_75"/><linearGradient id="Безымянный_градиент_118-2" x1="-177.57" y1="1209.31" x2="-177.57" y2="1198.56" gradientTransform="matrix(1, 0, 0, 1, 0, 0)" xlink:href="#Безымянный_градиент_118"/><linearGradient id="Безымянный_градиент_26-2" x1="-177.78" y1="1211.41" x2="-177.78" y2="1209.31" gradientTransform="matrix(1, 0, 0, 1, 0, 0)" xlink:href="#Безымянный_градиент_26"/><linearGradient id="Безымянный_градиент_97" x1="-227.33" y1="1169.21" x2="-127.78" y2="1169.21" gradientUnits="userSpaceOnUse"><stop offset="0" stop-color="#ffc393"/><stop offset="0.12" stop-color="#9272ae"/><stop offset="0.91" stop-color="#8f87ae"/><stop offset="1" stop-color="#e7e6f1"/></linearGradient><radialGradient id="Безымянный_градиент_85" cx="-222.3" cy="1158.22" r="64.86" gradientUnits="userSpaceOnUse"><stop offset="0" stop-color="#ac344c"/><stop offset="0.98" stop-color="#4d2b90"/></radialGradient><linearGradient id="Безымянный_градиент_72-3" x1="57.73" y1="116.69" x2="126.47" y2="47.95" gradientTransform="matrix(1, 0, 0, 1, 0, 0)" xlink:href="#Безымянный_градиент_72"/><linearGradient id="Безымянный_градиент_310" x1="44.28" y1="78.84" x2="139.39" y2="78.84" gradientUnits="userSpaceOnUse"><stop offset="0.02" stop-color="#1a0018"/><stop offset="1" stop-color="#0b0425"/></linearGradient><linearGradient id="Безымянный_градиент_106" x1="134.89" y1="107.8" x2="136.44" y2="105.65" gradientUnits="userSpaceOnUse"><stop offset="0.03" stop-color="#bd5ac9"/><stop offset="1" stop-color="#a45cff"/></linearGradient><linearGradient id="Безымянный_градиент_132" x1="-186.14" y1="1181.29" x2="-164.31" y2="1151.25" gradientUnits="userSpaceOnUse"><stop offset="0.03" stop-color="#ff9ddf"/><stop offset="1" stop-color="#e0c7ff"/></linearGradient><linearGradient id="Безымянный_градиент_94" x1="-176.87" y1="1178.24" x2="-155.94" y2="1149.43" gradientUnits="userSpaceOnUse"><stop offset="0.03" stop-color="#ff6bcf"/><stop offset="1" stop-color="#b67cff"/></linearGradient><linearGradient id="Безымянный_градиент_94-2" x1="59.78" y1="64.18" x2="63.56" y2="58.98" xlink:href="#Безымянный_градиент_94"/><linearGradient id="Безымянный_градиент_94-3" x1="82.81" y1="73.97" x2="86.45" y2="68.97" xlink:href="#Безымянный_градиент_94"/><linearGradient id="Безымянный_градиент_132-2" x1="77.02" y1="72.14" x2="78.95" y2="69.47" xlink:href="#Безымянный_градиент_132"/><linearGradient id="Безымянный_градиент_132-3" x1="-207.72" y1="1165.13" x2="-206.52" y2="1163.48" xlink:href="#Безымянный_градиент_132"/><linearGradient id="Безымянный_градиент_72-4" x1="93.82" y1="76.03" x2="133" y2="76.03" gradientTransform="matrix(1, 0, 0, 1, 0, 0)" xlink:href="#Безымянный_градиент_72"/><radialGradient id="Безымянный_градиент_210" cx="-240.98" cy="1174.74" r="16.88" gradientTransform="translate(0 -485.34) scale(1 1.41)" gradientUnits="userSpaceOnUse"><stop offset="0.25" stop-color="#fffeae"/><stop offset="0.29" stop-color="#fff9a8"/><stop offset="0.48" stop-color="#ffe795"/><stop offset="0.68" stop-color="#ffdd89"/><stop offset="0.87" stop-color="#ffd985"/><stop offset="0.89" stop-color="#ffd385"/><stop offset="0.94" stop-color="#ffc884"/><stop offset="1" stop-color="#ffc584"/></radialGradient><radialGradient id="Безымянный_градиент_282" cx="-242.5" cy="1181.87" r="14.52" gradientUnits="userSpaceOnUse"><stop offset="0.06" stop-color="#fff"/><stop offset="0.15" stop-color="#fefbfd"/><stop offset="0.99" stop-color="#ffbede"/></radialGradient><linearGradient id="Безымянный_градиент_253" x1="-242.43" y1="1196.55" x2="-242.43" y2="1182.2" gradientUnits="userSpaceOnUse"><stop offset="0.01" stop-color="#d486c2"/><stop offset="0.94" stop-color="#ffddd1"/></linearGradient><linearGradient id="Безымянный_градиент_253-2" x1="-242.56" y1="1196.87" x2="-242.56" y2="1195.12" xlink:href="#Безымянный_градиент_253"/><radialGradient id="Безымянный_градиент_276" cx="-237.83" cy="1174.3" r="6.23" gradientTransform="translate(959.4 1220.96) rotate(80.78)" gradientUnits="userSpaceOnUse"><stop offset="0.01" stop-color="#ffffa9"/><stop offset="0.09" stop-color="#e0e095"/><stop offset="0.28" stop-color="#9d9d68"/><stop offset="0.46" stop-color="#656543"/><stop offset="0.62" stop-color="#393926"/><stop offset="0.77" stop-color="#1a1a11"/><stop offset="0.9" stop-color="#070705"/><stop offset="0.99"/></radialGradient><radialGradient id="Безымянный_градиент_276-2" cx="-1695.5" cy="520.78" r="5.81" gradientTransform="matrix(0.49, -0.2, 0.38, 0.93, 375.32, 362.57)" xlink:href="#Безымянный_градиент_276"/><linearGradient id="Безымянный_градиент_279" x1="-242.56" y1="1197.45" x2="-242.56" y2="1181.21" gradientUnits="userSpaceOnUse"><stop offset="0.01" stop-color="#d486c2"/><stop offset="0.94" stop-color="#fff"/></linearGradient><radialGradient id="Безымянный_градиент_227" cx="-242.86" cy="1197.61" r="5.54" gradientTransform="translate(0 -219.57) scale(1 1.18)" gradientUnits="userSpaceOnUse"><stop offset="0" stop-color="#b3b0d3"/><stop offset="0.46" stop-color="#b1aed1"/><stop offset="0.69" stop-color="#aca6cb"/><stop offset="0.87" stop-color="#a399c1"/><stop offset="0.98" stop-color="#998cb6"/></radialGradient><linearGradient id="Безымянный_градиент_244" x1="-242.6" y1="1205.5" x2="-242.6" y2="1204.15" gradientUnits="userSpaceOnUse"><stop offset="0" stop-color="#7f7bb5"/><stop offset="0.98" stop-color="#685491"/></linearGradient><radialGradient id="Безымянный_градиент_234" cx="-242.63" cy="1205.3" r="2.63" gradientTransform="translate(0 -1035.7) scale(1 1.86)" gradientUnits="userSpaceOnUse"><stop offset="0" stop-color="#474b72"/><stop offset="0.42" stop-color="#474870"/><stop offset="0.69" stop-color="#454068"/><stop offset="0.92" stop-color="#43315a"/><stop offset="0.98" stop-color="#422b55"/></radialGradient><radialGradient id="Безымянный_градиент_240" cx="-242.43" cy="1201.95" r="5.14" gradientTransform="translate(0 -1032.82) scale(1 1.86)" gradientUnits="userSpaceOnUse"><stop offset="0" stop-color="#9490c1"/><stop offset="0.45" stop-color="#938ebf"/><stop offset="0.68" stop-color="#8d86b9"/><stop offset="0.85" stop-color="#8579ae"/><stop offset="0.98" stop-color="#7a69a0"/></radialGradient><radialGradient id="Безымянный_градиент_240-2" cx="-242.17" cy="1198.85" r="5.36" gradientTransform="translate(0 -1030.16) scale(1 1.86)" xlink:href="#Безымянный_градиент_240"/><linearGradient id="Безымянный_градиент_26-3" x1="-242.17" y1="1200.38" x2="-242.17" y2="1196.55" gradientTransform="matrix(1, 0, 0, 1, 0, 0)" xlink:href="#Безымянный_градиент_26"/><linearGradient id="Безымянный_градиент_26-4" x1="-242.43" y1="1202.92" x2="-242.43" y2="1199.83" gradientTransform="matrix(1, 0, 0, 1, 0, 0)" xlink:href="#Безымянный_градиент_26"/><linearGradient id="Безымянный_градиент_151" x1="2786.98" y1="-467.41" x2="2787.46" y2="-457.39" gradientTransform="matrix(-0.85, -0.53, 0.38, -0.62, 2318.14, 2320.59)" gradientUnits="userSpaceOnUse"><stop offset="0" stop-color="#e55036"/><stop offset="0.42" stop-color="#5b1b5c"/><stop offset="0.98" stop-color="#2a164a"/></linearGradient><linearGradient id="Безымянный_градиент_157" x1="2775.63" y1="-109.2" x2="2775.63" y2="-116.15" gradientTransform="translate(2200.77 2511.03) rotate(-148.28)" gradientUnits="userSpaceOnUse"><stop offset="0.03" stop-color="#9a007e"/><stop offset="0.38" stop-color="#cd0558"/><stop offset="1" stop-color="#ff792e"/></linearGradient><radialGradient id="Безымянный_градиент_154" cx="2759.06" cy="24.21" r="0.87" gradientTransform="matrix(-0.85, -0.53, 0.24, -0.39, 2135.28, 2616.55)" gradientUnits="userSpaceOnUse"><stop offset="0" stop-color="#2f3460"/><stop offset="0.64" stop-color="#391b5c"/><stop offset="0.98" stop-color="#2a164a"/></radialGradient><linearGradient id="Безымянный_градиент_398" x1="2786.11" y1="-114.04" x2="2814.96" y2="-114.04" gradientTransform="translate(2200.77 2511.03) rotate(-148.28)" gradientUnits="userSpaceOnUse"><stop offset="0.01" stop-color="#6052a9"/><stop offset="0.06" stop-color="#594c9c"/><stop offset="0.29" stop-color="#393165"/><stop offset="0.51" stop-color="#211c39"/><stop offset="0.71" stop-color="#0f0d1a"/><stop offset="0.87" stop-color="#040307"/><stop offset="0.99"/></linearGradient><linearGradient id="Безымянный_градиент_80" x1="2809.82" y1="-110.23" x2="2809.82" y2="-115.11" gradientTransform="translate(2200.77 2511.03) rotate(-148.28)" gradientUnits="userSpaceOnUse"><stop offset="0.43" stop-color="#d8d9ff"/><stop offset="0.84" stop-color="#80618e"/><stop offset="0.96" stop-color="#e3dce6"/></linearGradient><linearGradient id="Безымянный_градиент_399" x1="2762.16" y1="-109.54" x2="2762.16" y2="-115.79" gradientTransform="translate(2200.77 2511.03) rotate(-148.28)" gradientUnits="userSpaceOnUse"><stop offset="0.01"/><stop offset="0.13" stop-color="#040307"/><stop offset="0.29" stop-color="#0f0d1a"/><stop offset="0.49" stop-color="#211c39"/><stop offset="0.71" stop-color="#393165"/><stop offset="0.94" stop-color="#594c9c"/><stop offset="0.99" stop-color="#6052a9"/></linearGradient><linearGradient id="Безымянный_градиент_184" x1="2773.92" y1="-114.27" x2="2773.92" y2="-115.63" gradientTransform="translate(2200.77 2511.03) rotate(-148.28)" gradientUnits="userSpaceOnUse"><stop offset="0.03" stop-color="#930045"/><stop offset="1" stop-color="#6b004d"/></linearGradient><linearGradient id="Безымянный_градиент_337-2" x1="-90.09" y1="1212.42" x2="-90.09" y2="1192.68" gradientTransform="matrix(1, 0, 0, 1, 0, 0)" xlink:href="#Безымянный_градиент_337"/><linearGradient id="Безымянный_градиент_72-5" x1="-93.61" y1="1212.42" x2="-93.61" y2="1191.75" gradientTransform="matrix(1, 0, 0, 1, 0, 0)" xlink:href="#Безымянный_градиент_72"/><linearGradient id="Безымянный_градиент_449" x1="-72.03" y1="1212.66" x2="-72.03" y2="1195.75" gradientUnits="userSpaceOnUse"><stop offset="0" stop-color="#7c004d"/><stop offset="0.97" stop-color="#af0059"/></linearGradient><linearGradient id="Безымянный_градиент_158" x1="-74.7" y1="1212.66" x2="-74.7" y2="1195.75" gradientUnits="userSpaceOnUse"><stop offset="0" stop-color="#ff224d"/><stop offset="0.97" stop-color="#c3005a"/></linearGradient><radialGradient id="Безымянный_градиент_55" cx="-242.17" cy="118.96" r="27.26" gradientTransform="translate(269.43 -26.06) scale(1 0.96)" gradientUnits="userSpaceOnUse"><stop offset="0" stop-color="#f60"/><stop offset="0.03" stop-color="#ef6000"/><stop offset="0.14" stop-color="#b84a00"/><stop offset="0.25" stop-color="#873600"/><stop offset="0.37" stop-color="#5d2500"/><stop offset="0.48" stop-color="#3c1800"/><stop offset="0.6" stop-color="#210d00"/><stop offset="0.72" stop-color="#0f0600"/><stop offset="0.85" stop-color="#040100"/><stop offset="0.99"/></radialGradient><radialGradient id="Безымянный_градиент_55-2" cx="-242.17" cy="118.96" r="15.37" xlink:href="#Безымянный_градиент_55"/><radialGradient id="Безымянный_градиент_75-3" cx="657.07" cy="1322.29" r="22.31" gradientTransform="translate(-1510.58 1067.93) scale(1.98 0.11)" xlink:href="#Безымянный_градиент_75"/><radialGradient id="Безымянный_градиент_75-4" cx="838.97" cy="1322.29" r="12.58" gradientTransform="translate(-2330.97 1067.93) scale(2.53 0.11)" xlink:href="#Безымянный_градиент_75"/><radialGradient id="Безымянный_градиент_134" cx="-253.78" cy="1218.46" r="20.12" gradientTransform="translate(32.9 697.51) rotate(0.15) scale(1 0.43)" gradientUnits="userSpaceOnUse"><stop offset="0" stop-color="#272360"/><stop offset="0.98" stop-color="#27003d"/></radialGradient><linearGradient id="Безымянный_градиент_127" x1="-267.45" y1="1211.07" x2="-225.57" y2="1211.07" gradientTransform="translate(34.72 -1.83) rotate(0.15)" gradientUnits="userSpaceOnUse"><stop offset="0" stop-color="#c43440"/><stop offset="0.64" stop-color="#6d1b5c"/><stop offset="0.98" stop-color="#2a2cd4"/></linearGradient><linearGradient id="Безымянный_градиент_87" x1="-267.45" y1="1214.34" x2="-233.27" y2="1214.34" gradientTransform="translate(34.72 -1.83) rotate(0.15)" gradientUnits="userSpaceOnUse"><stop offset="0.01" stop-color="#542f83"/><stop offset="0.94" stop-color="#fff"/></linearGradient><radialGradient id="Безымянный_градиент_95" cx="-255.37" cy="1204.54" r="3.14" gradientTransform="translate(34.72 -1.83) rotate(0.15)" gradientUnits="userSpaceOnUse"><stop offset="0" stop-color="#635272"/><stop offset="0.31" stop-color="#614f70"/><stop offset="0.52" stop-color="#594669"/><stop offset="0.7" stop-color="#4c375e"/><stop offset="0.86" stop-color="#3a224e"/><stop offset="0.98" stop-color="#270c3d"/></radialGradient><radialGradient id="Безымянный_градиент_109" cx="-258.3" cy="1206.15" r="3.56" gradientTransform="translate(34.72 -1.83) rotate(0.15)" gradientUnits="userSpaceOnUse"><stop offset="0" stop-color="#2f1160"/><stop offset="0.98" stop-color="#1d002c"/></radialGradient><linearGradient id="Безымянный_градиент_137" x1="-242.9" y1="1209.43" x2="-228.95" y2="1209.43" gradientTransform="translate(34.72 -1.83) rotate(0.15)" gradientUnits="userSpaceOnUse"><stop offset="0.07" stop-color="#f92cff"/><stop offset="0.6" stop-color="#009fff"/><stop offset="0.99" stop-color="#00ff90"/></linearGradient><linearGradient id="Безымянный_градиент_141" x1="-255.63" y1="1204.48" x2="-248.56" y2="1204.48" gradientTransform="translate(34.72 -1.83) rotate(0.15)" gradientUnits="userSpaceOnUse"><stop offset="0" stop-color="#009fff"/><stop offset="0.93" stop-color="#f92cff"/></linearGradient><radialGradient id="Безымянный_градиент_146" cx="960.83" cy="777.4" r="3.15" gradientTransform="matrix(2.3, 0, 0, 0.76, -2434, 613.97)" gradientUnits="userSpaceOnUse"><stop offset="0.01" stop-color="#003772"/><stop offset="0.09" stop-color="#003064"/><stop offset="0.37" stop-color="#001c39"/><stop offset="0.62" stop-color="#000d1a"/><stop offset="0.84" stop-color="#000307"/><stop offset="0.99"/></radialGradient><radialGradient id="Безымянный_градиент_170" cx="-256.03" cy="1210.45" r="5.77" gradientTransform="matrix(1, 0, 0, 0.39, 32.8, 735.45)" gradientUnits="userSpaceOnUse"><stop offset="0" stop-color="#0f062d"/><stop offset="0.98" stop-color="#0e0020"/></radialGradient></defs><g class="cls-1"><g id="Layer_1" data-name="Layer 1"><path class="cls-2" d="M-102.36,1091.83l-26.84-4.36-7.47,33.3,26.47,6Zm-9.45,32.09-16.28-3.41,5.78-29.17,17.26,2.45Z" transform="translate(269.43 -1087.47)"/><polygon class="cls-3" points="162.5 39.98 158.86 39.12 167.06 4.36 171.38 5.39 162.5 39.98"/><polygon class="cls-3" points="164.38 6.33 147.12 3.88 141.34 33.05 135.52 31.83 141.47 1.75 164.6 5.37 164.38 6.33"/><polygon class="cls-4" points="141.47 1.75 146.32 7.9 147.12 3.88 164.38 6.33 164.6 5.37 141.47 1.75"/><polygon class="cls-4" points="146.78 36.45 148.12 34.46 142.84 33.36 140.83 35.12 146.78 36.45"/><circle class="cls-5" cx="-133.05" cy="1108.94" r="15.65" transform="translate(-914.02 -358.15) rotate(-76.97)"/><circle class="cls-6" cx="-135.97" cy="1107.06" r="7.89" transform="translate(-909.92 -374.68) rotate(-76.3)"/><ellipse class="cls-7" cx="-128.08" cy="1104.43" rx="7.89" ry="9.47" transform="translate(-135.9 -1059.75) rotate(-21.05)"/><circle class="cls-8" cx="100.18" cy="27.69" r="12.09"/><circle class="cls-9" cx="-171.92" cy="1115.04" r="6.1" transform="translate(-1003.66 -218.01) rotate(-86.19)"/><path class="cls-10" d="M-163.86,1105.45c3.15,2.53,4,6.71,1.89,9.34s-6.37,2.71-9.52.18-4-6.71-1.9-9.34S-167,1102.92-163.86,1105.45Z" transform="translate(269.43 -1087.47)"/><polygon class="cls-11" points="149.32 44.77 143.89 59.95 155.36 67.04 162.27 50.81 149.32 44.77"/><polygon class="cls-12" points="162.27 50.81 174.38 54.66 166.44 69.35 155.36 67.04 162.27 50.81"/><polygon class="cls-13" points="149.32 44.77 162.84 48.52 174.38 54.66 162.27 50.81 149.32 44.77"/><polygon class="cls-14" points="20.89 58.58 30.57 73.75 44.67 68.48 35.07 51.28 20.89 58.58"/><polygon class="cls-15" points="35.07 51.28 46.75 43.22 54.28 60.27 44.67 68.48 35.07 51.28"/><polygon class="cls-13" points="20.89 58.58 33.44 49.2 46.75 43.22 35.07 51.28 20.89 58.58"/><polygon class="cls-16" points="58.12 7.03 53.84 15.78 45.93 13.81 50.05 3.97 58.12 7.03"/><polygon class="cls-15" points="50.05 3.97 43.27 0.35 39.77 9.08 45.93 13.81 50.05 3.97"/><polygon class="cls-13" points="58.12 7.03 50.8 2.75 43.27 0.35 50.05 3.97 58.12 7.03"/><path class="cls-17" d="M-235.08,1111.22l-19.23-2,20,17.69,20.94,2.68Zm.81,14.63-16.59-15.49,16,2.07,18.59,15.89Z" transform="translate(269.43 -1087.47)"/><polygon class="cls-18" points="15.11 21.73 15.23 23.93 34.44 40.89 35.08 39.42 15.11 21.73"/><polygon class="cls-3" points="56.01 42.1 54.72 43.1 34.44 40.89 35.08 39.42 56.01 42.1"/><polygon class="cls-3" points="19.93 24 34.37 25.68 50.67 40.51 53.12 40.85 34.53 24.96 18.56 22.89 19.93 24"/><path class="cls-19" d="M-203.32,1116.51l-.07-1.33.77-2.53-1.61-2.45-2.63-.29-1.19-.6-1.79-1.93-2.94.17-1.56,2.12-1.11.73-2.58.59-1.32,2.63,1.06,2.42.08,1.33-.78,2.52,1.62,2.46,2.62.29,1.19.6,1.8,1.93,2.94-.17,1.56-2.13,1.11-.73,2.57-.59,1.33-2.63Zm-9.53,3.83a4.55,4.55,0,0,1-2-6.11,4.55,4.55,0,0,1,6.11-2,4.56,4.56,0,0,1,2,6.12A4.56,4.56,0,0,1-212.85,1120.34Z" transform="translate(269.43 -1087.47)"/><path class="cls-20" d="M-202.63,1115.64l-.08-1.37.8-2.61-1.67-2.53-2.71-.3-1.23-.62-1.85-2-3,.18-1.62,2.2-1.15.75-2.65.61-1.37,2.71,1.1,2.5.08,1.37-.8,2.6,1.67,2.54,2.7.3,1.23.62,1.86,2,3-.17,1.61-2.2,1.15-.75,2.66-.61,1.36-2.71Zm-9.84,4a4.69,4.69,0,0,1-2.09-6.31,4.69,4.69,0,0,1,6.31-2.09,4.69,4.69,0,0,1,2.09,6.31A4.7,4.7,0,0,1-212.47,1119.6Z" transform="translate(269.43 -1087.47)"/><polygon class="cls-21" points="50.08 26.15 50.24 25.19 51.34 27.69 51.14 28.57 50.08 26.15"/><polygon class="cls-21" points="52.05 34.88 52.28 34.2 54.99 34.5 54.68 35.17 52.05 34.88"/><polygon class="cls-21" points="65.85 34.08 66.52 33.38 63.87 33.99 63.28 34.67 65.85 34.08"/><polygon class="cls-21" points="60.6 37.53 61.11 36.94 58.07 37.12 57.66 37.7 60.6 37.53"/><path class="cls-22" d="M-214.44,1122s-2-.45-2.52-.66-1.85-2.18-1.85-2.18l1.67,2.54Z" transform="translate(269.43 -1087.47)"/><path class="cls-22" d="M-213.21,1122.59l1.86,2,3-.17a16.76,16.76,0,0,1-2.84-.12A11.56,11.56,0,0,1-213.21,1122.59Z" transform="translate(269.43 -1087.47)"/><path class="cls-22" d="M-202.9,1120.85l1.36-2.71a17.62,17.62,0,0,1-1.64,2.45,20.18,20.18,0,0,1-2.38.87Z" transform="translate(269.43 -1087.47)"/><path class="cls-22" d="M-218.09,1115.16l-1.1-2.5,1.37-2.71a14.82,14.82,0,0,0-.92,2.82A7.54,7.54,0,0,0-218.09,1115.16Z" transform="translate(269.43 -1087.47)"/><path class="cls-23" d="M-176.29,1133l2.39-.4.38-5.12-2.32-.74-1.34-4,1.42-2-3.36-3.88-2.16,1.11-3.81-1.92-.4-2.4-5.12-.37-.74,2.31-4.05,1.34-2.24-1.59-3.77,3.25,1.25,2.45-1.91,3.81-2.4.4-.38,5.12,2.32.74,1.34,4-1.42,2,3.36,3.88,2.16-1.11,3.81,1.92.4,2.4,5.12.37.75-2.31,4-1.34,2,1.41,3.89-3.35-1.11-2.17Zm-16.91,3.62a8.69,8.69,0,0,1-3.86-11.67,8.69,8.69,0,0,1,11.67-3.86,8.69,8.69,0,0,1,3.86,11.67A8.69,8.69,0,0,1-193.2,1136.57Z" transform="translate(269.43 -1087.47)"/><path class="cls-24" d="M-174.56,1131.17l2.54-.42.39-5.41-2.44-.79-1.41-4.27,1.49-2.09-3.54-4.1-2.29,1.17-4-2-.42-2.54-5.41-.39-.78,2.44-4.28,1.42-2.36-1.69-4,3.44,1.32,2.58-2,4-2.53.43-.4,5.4,2.44.79,1.42,4.27-1.49,2.09,3.54,4.1,2.28-1.17,4,2,.43,2.54,5.4.39.79-2.44,4.27-1.42,2.09,1.5,4.1-3.54-1.17-2.29ZM-192.4,1135a9.17,9.17,0,0,1-4.08-12.32,9.18,9.18,0,0,1,12.32-4.07,9.18,9.18,0,0,1,4.08,12.32A9.17,9.17,0,0,1-192.4,1135Z" transform="translate(269.43 -1087.47)"/><polygon class="cls-25" points="95.53 45.09 97.4 43.28 94.87 43.7 94.05 45.33 95.53 45.09"/><polygon class="cls-26" points="82.77 55.91 81.67 57.06 76.55 56.68 77.36 55.52 82.77 55.91"/><polygon class="cls-26" points="70.63 52.13 70.17 53.48 66.82 49.59 67.09 48.03 70.63 52.13"/><polygon class="cls-25" points="76.15 54.28 76.94 52.99 77.36 55.52 76.55 56.68 76.15 54.28"/><polygon class="cls-25" points="66.89 43.56 67.17 41.67 64.73 40.88 64.58 42.82 66.89 43.56"/><polygon class="cls-25" points="68.85 32.68 69.68 31.03 68.35 28.45 68.02 31.05 68.85 32.68"/><polygon class="cls-27" points="86.46 53.4 87.83 52.06 89.92 53.55 88.44 54.81 86.46 53.4"/><path class="cls-28" d="M-181.08,1126l1.64-1.65a9.75,9.75,0,0,1-.25,5.7l-1.2,1A8.16,8.16,0,0,0-181.08,1126Z" transform="translate(269.43 -1087.47)"/><path class="cls-28" d="M-193,1121l.67-2.39a9.48,9.48,0,0,0-5,7.06C-196,1121.66-193,1121-193,1121Z" transform="translate(269.43 -1087.47)"/><path class="cls-22" d="M-192.49,1140.45s.37,1.84.94,2.1,4.89.83,4.89.83l-5.4-.39Z" transform="translate(269.43 -1087.47)"/><path class="cls-22" d="M-196.51,1138.43l-2.28,1.17-3.54-4.1s2.91,3.15,3.62,3.42S-196.51,1138.43-196.51,1138.43Z" transform="translate(269.43 -1087.47)"/><path class="cls-22" d="M-204.3,1123l-.4,5.4,2.44.79s-1.73-.53-2.06-1S-204.3,1123-204.3,1123Z" transform="translate(269.43 -1087.47)"/><path class="cls-22" d="M-181.6,1139.52l2.09,1.5,4.1-3.54s-3.38,3.18-4.13,3.08A6.94,6.94,0,0,1-181.6,1139.52Z" transform="translate(269.43 -1087.47)"/><polygon class="cls-29" points="141.13 77.13 141.6 72.78 146.2 72.78 145.53 77.13 141.13 77.13"/><path class="cls-30" d="M-138.26,1211.8h28.16a6.07,6.07,0,0,0,6.07-5.88l1.36-34.9a6.09,6.09,0,0,0-6.08-6.28h-30.87Z" transform="translate(269.43 -1087.47)"/><path class="cls-31" d="M-138.7,1211.67h28.16a6.09,6.09,0,0,0,6.08-5.89l1.35-34.9a6.08,6.08,0,0,0-6.08-6.28h-30.87Z" transform="translate(269.43 -1087.47)"/><path class="cls-32" d="M-138.74,1210.87h27.21a5.87,5.87,0,0,0,5.87-5.68l1.3-33.73a5.87,5.87,0,0,0-5.87-6.07h-29.83Z" transform="translate(269.43 -1087.47)"/><path class="cls-33" d="M-105.7,1205.69l-2.14,0,1.08-35.4a6.73,6.73,0,0,0-1.91-3.48l-2.86,44.08A6,6,0,0,0-105.7,1205.69Z" transform="translate(269.43 -1087.47)"/><path class="cls-34" d="M-142.73,1211.8h28.16a6.07,6.07,0,0,0,6.07-5.88l1.36-34.9a6.08,6.08,0,0,0-6.08-6.28h-30.87Z" transform="translate(269.43 -1087.47)"/><path class="cls-35" d="M-143.17,1211.67H-115a6.09,6.09,0,0,0,6.08-5.89l1.35-34.9a6.08,6.08,0,0,0-6.08-6.28h-30.87Z" transform="translate(269.43 -1087.47)"/><path class="cls-36" d="M-116.64,1164.6l-.64,47.07s3.17.13,4.66.13l-.15.3h-8.38V1164a52,52,0,0,0,7.21.28l.28.36Z" transform="translate(269.43 -1087.47)"/><path class="cls-33" d="M-116.88,1164.26l-.82,47.84h4.93l.15-.3-4.26-.13.48-47.07h2.74l-.28-.36S-115.79,1164.32-116.88,1164.26Z" transform="translate(269.43 -1087.47)"/><polygon class="cls-37" points="132.19 77.13 131.52 73.87 136.81 73.87 137.74 77.13 132.19 77.13"/><text class="cls-38" transform="translate(129.22 121.16)">DESIGN</text><path class="cls-39" d="M-138.37,1117.72l-45.75,31.41a1.63,1.63,0,0,0-.38,2.3l8,10.87a1.63,1.63,0,0,0,2.2.41l45.42-29.6a1.63,1.63,0,0,0,.5-2.2l-7.63-12.69A1.63,1.63,0,0,0-138.37,1117.72Zm-43,33.86a1,1,0,0,1-1.36-.28,1,1,0,0,1,.28-1.36,1,1,0,0,1,1.37.28A1,1,0,0,1-181.34,1151.58Z" transform="translate(269.43 -1087.47)"/><path class="cls-40" d="M-138.47,1117.6l-45.75,31.4a1.62,1.62,0,0,0-.38,2.3l8,10.88a1.62,1.62,0,0,0,2.2.4L-129,1133a1.63,1.63,0,0,0,.5-2.2l-7.63-12.68A1.62,1.62,0,0,0-138.47,1117.6Zm-43,33.86a1,1,0,0,1-1.36-.29,1,1,0,0,1,.28-1.36,1,1,0,0,1,1.36.29A1,1,0,0,1-181.44,1151.46Z" transform="translate(269.43 -1087.47)"/><polygon class="cls-41" points="102.98 67.95 97.28 71.66 89.58 60.76 95.28 56.85 102.98 67.95"/><polygon class="cls-42" points="109.64 63.61 103.79 67.42 96.09 56.3 101.95 52.3 109.64 63.61"/><polygon class="cls-43" points="116.47 59.16 110.46 63.08 102.77 51.73 108.79 47.61 116.47 59.16"/><polygon class="cls-44" points="123.49 54.58 117.32 58.61 109.63 47.03 115.82 42.8 123.49 54.58"/><polygon class="cls-45" points="130.71 49.88 124.36 54.02 116.69 42.21 123.05 37.85 130.71 49.88"/><polygon class="cls-46" points="138.13 45.05 131.6 49.3 123.94 37.24 130.48 32.76 138.13 45.05"/><path class="cls-47" d="M-145.82,1109.34l-38.27,40.19a1.63,1.63,0,0,0,.1,2.33l10,9a1.63,1.63,0,0,0,2.24-.06l38.31-38.36a1.62,1.62,0,0,0,0-2.25l-10.09-10.84A1.62,1.62,0,0,0-145.82,1109.34Zm-35,42a1,1,0,0,1-1.39,0,1,1,0,0,1,0-1.39,1,1,0,0,1,1.39,0A1,1,0,0,1-180.86,1151.36Z" transform="translate(269.43 -1087.47)"/><path class="cls-48" d="M-145.95,1109.24l-38.27,40.19a1.63,1.63,0,0,0,.11,2.33l10,9a1.62,1.62,0,0,0,2.23-.06l38.31-38.36a1.61,1.61,0,0,0,0-2.25l-10.09-10.84A1.62,1.62,0,0,0-145.95,1109.24Zm-35,42a1,1,0,0,1-1.39,0,1,1,0,0,1,0-1.39,1,1,0,0,1,1.39,0A1,1,0,0,1-181,1151.26Z" transform="translate(269.43 -1087.47)"/><polygon class="cls-49" points="103.93 64.56 99.12 69.37 89.33 60.29 94.1 55.29 103.93 64.56"/><polygon class="cls-50" points="109.55 58.93 104.61 63.88 94.78 54.59 99.68 49.45 109.55 58.93"/><polygon class="cls-51" points="115.31 53.16 110.24 58.24 100.37 48.73 105.4 43.46 115.31 53.16"/><polygon class="cls-52" points="121.23 47.23 116.02 52.45 106.11 42.72 111.28 37.3 121.23 47.23"/><polygon class="cls-53" points="127.32 41.14 121.97 46.5 112.01 36.53 117.33 30.96 127.32 41.14"/><polygon class="cls-54" points="133.57 34.88 128.07 40.39 118.08 30.18 123.56 24.44 133.57 34.88"/><path class="cls-55" d="M-154.84,1102.85l-29.62,46.92a1.64,1.64,0,0,0,.56,2.27l11.61,6.84a1.63,1.63,0,0,0,2.18-.5l30-45.13a1.63,1.63,0,0,0-.41-2.22l-12-8.64A1.63,1.63,0,0,0-154.84,1102.85Zm-26.1,48.08a1,1,0,0,1-1.36.28,1,1,0,0,1-.28-1.37,1,1,0,0,1,1.37-.27A1,1,0,0,1-180.94,1150.93Z" transform="translate(269.43 -1087.47)"/><path class="cls-56" d="M-155.08,1102.6l-29.62,46.93a1.63,1.63,0,0,0,.56,2.26l11.61,6.85a1.63,1.63,0,0,0,2.18-.5l30-45.14a1.63,1.63,0,0,0-.41-2.22l-12-8.64A1.63,1.63,0,0,0-155.08,1102.6Zm-26.1,48.09a1,1,0,0,1-1.36.27,1,1,0,0,1-.27-1.36,1,1,0,0,1,1.36-.28A1,1,0,0,1-181.18,1150.69Z" transform="translate(269.43 -1087.47)"/><path class="cls-57" d="M-155.22,1102.53l-29.62,46.92a1.64,1.64,0,0,0,.56,2.27l11.61,6.84a1.63,1.63,0,0,0,2.18-.5l30-45.13a1.63,1.63,0,0,0-.41-2.22l-12-8.64A1.63,1.63,0,0,0-155.22,1102.53Zm-26.1,48.08a1,1,0,0,1-1.36.28,1,1,0,0,1-.28-1.37,1,1,0,0,1,1.37-.27A1,1,0,0,1-181.32,1150.61Z" transform="translate(269.43 -1087.47)"/><polygon class="cls-58" points="103.45 60.85 99.68 66.52 88.3 59.54 92 53.7 103.45 60.85"/><polygon class="cls-59" points="107.85 54.24 103.98 60.05 92.52 52.88 96.31 46.88 107.85 54.24"/><polygon class="cls-60" points="112.37 47.45 108.4 53.42 96.85 46.04 100.75 39.88 112.37 47.45"/><polygon class="cls-61" points="117.01 40.47 112.93 46.61 101.3 39.01 105.31 32.68 117.01 40.47"/><polygon class="cls-62" points="121.78 33.3 117.58 39.61 105.87 31.79 109.99 25.28 121.78 33.3"/><polygon class="cls-63" points="126.69 25.93 122.37 32.41 110.57 24.36 114.81 17.67 126.69 25.93"/><path class="cls-55" d="M-160.07,1100.48l-24.26,49.92a1.63,1.63,0,0,0,.79,2.19l12,5.46a1.64,1.64,0,0,0,2.12-.73l25.1-48a1.64,1.64,0,0,0-.64-2.17l-12.86-7.32A1.62,1.62,0,0,0-160.07,1100.48Zm-20.63,50.7a1,1,0,0,1-1.33.42,1,1,0,0,1-.42-1.33,1,1,0,0,1,1.33-.42A1,1,0,0,1-180.7,1151.18Z" transform="translate(269.43 -1087.47)"/><path class="cls-64" d="M-160.31,1100.35l-24.26,49.93a1.63,1.63,0,0,0,.79,2.19l12,5.45a1.63,1.63,0,0,0,2.12-.73l25.1-48a1.63,1.63,0,0,0-.64-2.16l-12.86-7.33A1.64,1.64,0,0,0-160.31,1100.35Zm-20.63,50.71a1,1,0,0,1-1.33.41,1,1,0,0,1-.42-1.32,1,1,0,0,1,1.33-.42A1,1,0,0,1-180.94,1151.06Z" transform="translate(269.43 -1087.47)"/><path class="cls-65" d="M-160.45,1100.28l-24.26,49.92a1.63,1.63,0,0,0,.8,2.2l12,5.45a1.64,1.64,0,0,0,2.11-.73l25.1-48a1.64,1.64,0,0,0-.64-2.17l-12.86-7.32A1.64,1.64,0,0,0-160.45,1100.28Zm-20.63,50.7a1,1,0,0,1-1.33.42,1,1,0,0,1-.41-1.33,1,1,0,0,1,1.32-.41A1,1,0,0,1-181.08,1151Z" transform="translate(269.43 -1087.47)"/><path class="cls-66" d="M-183.46,1149.74a1.7,1.7,0,0,0,.72,2.29,1.69,1.69,0,0,0,2.29-.72,1.69,1.69,0,0,0-.72-2.29A1.7,1.7,0,0,0-183.46,1149.74Zm2.28,1.19a.89.89,0,0,1-1.18.37.87.87,0,0,1-.36-1.17.87.87,0,0,1,1.17-.37A.87.87,0,0,1-181.18,1150.93Z" transform="translate(269.43 -1087.47)"/><path class="cls-67" d="M-182.82,1150.07a1,1,0,0,0,.41,1.33,1,1,0,0,0,1.33-.41,1,1,0,0,0-.42-1.34A1,1,0,0,0-182.82,1150.07Zm1.64.86a.89.89,0,0,1-1.18.37.87.87,0,0,1-.36-1.17.87.87,0,0,1,1.17-.37A.87.87,0,0,1-181.18,1150.93Z" transform="translate(269.43 -1087.47)"/><text class="cls-68" transform="matrix(0.46, -0.89, 0.89, 0.46, 107.76, 31.4)">CO<tspan class="cls-69" x="3.9" y="0">L</tspan><tspan x="5.14" y="0">OR</tspan><tspan x="-1.52" y="6.21">PA</tspan><tspan class="cls-70" x="2.23" y="6.21">L</tspan><tspan x="3.65" y="6.21">ETTE</tspan></text><path class="cls-4" d="M-143.33,1207l11.42-2.78s2.12-.89,2.52-2.6l.4-7.93-14.51,1Z" transform="translate(269.43 -1087.47)"/><ellipse class="cls-71" cx="92.83" cy="125.19" rx="73.91" ry="2.57"/><ellipse class="cls-72" cx="156.55" cy="125.19" rx="54.96" ry="2.51"/><path class="cls-73" d="M-163.64,1209.31h-27.87l2.31-10.38.08-.37h3.47a7.4,7.4,0,0,0,.3,1,8,8,0,0,0,8,5.57A7.18,7.18,0,0,0-171,1202a8.14,8.14,0,0,0,1.3-3.43H-166l1,4.43Z" transform="translate(269.43 -1087.47)"/><path class="cls-74" d="M-199.92,1209.31a1.61,1.61,0,0,0,.65,2.1h42.52s1.54-.87,1.22-2.1Z" transform="translate(269.43 -1087.47)"/><path class="cls-75" d="M-185.65,1198.56a7.4,7.4,0,0,0,.3,1l-3.85-.65h-.05l.13-.36Z" transform="translate(269.43 -1087.47)"/><path class="cls-75" d="M-165,1203l-5.94-1a8.14,8.14,0,0,0,1.3-3.43H-166Z" transform="translate(269.43 -1087.47)"/><path class="cls-76" d="M-227.29,1193.44l6.29-49.61a4.55,4.55,0,0,1,4.51-4h78.6a4.56,4.56,0,0,1,4.53,4.05l5.55,49.6a4.55,4.55,0,0,1-4.52,5.06h-90.45A4.54,4.54,0,0,1-227.29,1193.44Z" transform="translate(269.43 -1087.47)"/><path class="cls-77" d="M-227.46,1193.13l6.59-52a3.37,3.37,0,0,1,3.34-3h80.7a3.37,3.37,0,0,1,3.35,3l5.82,52a3.37,3.37,0,0,1-3.36,3.74h-93.09A3.36,3.36,0,0,1-227.46,1193.13Z" transform="translate(269.43 -1087.47)"/><path class="cls-78" d="M-183.76,1138.21l53.47,31.47-3.19-28.47a3.28,3.28,0,0,0-3.35-3Z" transform="translate(269.43 -1087.47)"/><polygon class="cls-79" points="50.13 56.06 132.94 54.43 139.39 103.25 44.28 103.25 50.13 56.06"/><polygon class="cls-80" points="51.32 103.25 55.93 59.93 128.26 59.93 132.76 103.25 51.32 103.25"/><polygon class="cls-81" points="44.76 103.25 50.63 56.51 132.76 54.77 138.87 103.25 139.39 103.25 132.94 54.43 50.13 56.06 44.28 103.25 44.76 103.25"/><polygon class="cls-82" points="134.03 106.39 134.03 107.18 137.21 107.18 137.21 106.21 134.03 106.39"/><polygon class="cls-83" points="134.03 106.39 136.14 106.29 136.14 107.18 134.03 107.18 134.03 106.39"/><path class="cls-84" d="M-144.53,1166.81c-9.73,0-13.2-16.46-24-15.72s-11.82,15.72-16.69,15.72-4.95-8.26-11.6-7.87-9.26,7.87-9.26,7.87Z" transform="translate(269.43 -1087.47)"/><path class="cls-85" d="M-183.9,1166.81h39.37s1.39-11.36-7.2-13.47-11.88,7.48-15.34,8.14-4.12-1.8-8.23-1.56-4.4,5.2-6.92,6-3.37-1.58-6.36-1-4,1.87-4,1.87Z" transform="translate(269.43 -1087.47)"/><polygon class="cls-86" points="57.1 61.05 56.94 62.11 66.22 62.11 66.41 61.05 57.1 61.05"/><polygon class="cls-87" points="82.87 61.05 82.71 62.11 86.5 62.11 86.68 61.05 82.87 61.05"/><polygon class="cls-87" points="90.01 61.05 89.84 62.11 93.63 62.11 93.82 61.05 90.01 61.05"/><polygon class="cls-87" points="97.14 61.05 96.97 62.11 100.77 62.11 100.95 61.05 97.14 61.05"/><polygon class="cls-87" points="104.28 61.05 104.11 62.11 107.9 62.11 108.09 61.05 104.28 61.05"/><polygon class="cls-87" points="121.17 61.05 121 62.11 124.8 62.11 124.98 61.05 121.17 61.05"/><polygon class="cls-88" points="55.92 81.74 127.97 80.74 128.5 86.41 55.53 86.4 55.92 81.74"/><polygon class="cls-89" points="75.96 102.06 64.09 102.06 65.74 87.46 76.9 87.46 75.96 102.06"/><path class="cls-80" d="M-201.42,1178.87l-.52,5.08h6.07l.38-5.08Zm4.57,4.19h-4l.32-3.33h3.9Z" transform="translate(269.43 -1087.47)"/><polygon class="cls-80" points="69.02 95.29 72.32 95.29 71.43 93.49 70.59 94.18 70.33 93.99 69.02 95.29"/><path class="cls-80" d="M-198.69,1180.79a.63.63,0,0,1-.62.55.5.5,0,0,1-.52-.55.63.63,0,0,1,.62-.54A.5.5,0,0,1-198.69,1180.79Z" transform="translate(269.43 -1087.47)"/><polygon class="cls-90" points="90.38 102.06 78.5 102.06 79.29 87.46 90.45 87.46 90.38 102.06"/><path class="cls-80" d="M-187.64,1178.87l-.22,5.08h6.07l.08-5.08Zm4.82,4.19h-4l.13-3.33h3.9Z" transform="translate(269.43 -1087.47)"/><polygon class="cls-80" points="83.03 95.29 86.33 95.29 85.33 93.49 84.54 94.18 84.27 93.99 83.03 95.29"/><path class="cls-80" d="M-184.8,1180.79a.57.57,0,0,1-.58.55.53.53,0,0,1-.55-.55.57.57,0,0,1,.58-.54A.53.53,0,0,1-184.8,1180.79Z" transform="translate(269.43 -1087.47)"/><polygon class="cls-91" points="104.79 102.06 92.91 102.06 92.83 87.46 104 87.46 104.79 102.06"/><path class="cls-80" d="M-173.86,1178.87l.08,5.08h6.07l-.22-5.08Zm5.07,4.19h-4l-.07-3.33h3.9Z" transform="translate(269.43 -1087.47)"/><polygon class="cls-80" points="97.04 95.29 100.34 95.29 99.24 93.49 98.48 94.18 98.2 93.99 97.04 95.29"/><path class="cls-80" d="M-170.9,1180.79a.54.54,0,0,1-.56.55.57.57,0,0,1-.58-.55.53.53,0,0,1,.55-.54A.58.58,0,0,1-170.9,1180.79Z" transform="translate(269.43 -1087.47)"/><polygon class="cls-92" points="119.2 102.06 107.32 102.06 106.38 87.46 117.55 87.46 119.2 102.06"/><path class="cls-80" d="M-160.08,1178.87l.39,5.08h6.06l-.51-5.08Zm5.32,4.19h-4l-.27-3.33h3.9Z" transform="translate(269.43 -1087.47)"/><polygon class="cls-80" points="111.05 95.29 114.36 95.29 113.14 93.49 112.43 94.18 112.14 93.99 111.05 95.29"/><path class="cls-80" d="M-157,1180.79a.5.5,0,0,1-.52.55.61.61,0,0,1-.61-.55.49.49,0,0,1,.52-.54A.61.61,0,0,1-157,1180.79Z" transform="translate(269.43 -1087.47)"/><circle class="cls-93" cx="84.63" cy="71.47" r="3.09"/><circle class="cls-94" cx="77.99" cy="70.81" r="1.65"/><path class="cls-95" d="M-206.1,1164.31a1,1,0,0,1-1,1,1,1,0,0,1-1-1,1,1,0,0,1,1-1A1,1,0,0,1-206.1,1164.31Z" transform="translate(269.43 -1087.47)"/><polygon class="cls-96" points="51.41 103.25 51.23 103.23 55.85 59.84 128.34 59.84 128.35 59.92 132.85 103.24 132.68 103.25 128.19 60.02 56.01 60.02 51.41 103.25"/><polygon class="cls-78" points="96.97 55.75 135.36 76.86 132.76 54.77 96.97 55.75"/><path class="cls-97" d="M-169.68,1198.56h0Z" transform="translate(269.43 -1087.47)"/><polygon class="cls-98" points="90.77 79.7 91.34 96.54 131.33 96.54 129.05 79.36 90.77 79.7"/><polygon class="cls-80" points="93.82 74.56 94.3 92.27 134.68 92.27 132.66 74.56 93.82 74.56"/><polygon class="cls-99" points="93.9 77.5 133 77.5 132.66 74.56 93.82 74.56 93.9 77.5"/><path class="cls-96" d="M-134.65,1179.82h-40.56v-.08l-.48-17.8h39v.08Zm-40.39-.17h40.19l-2-17.53h-38.68Z" transform="translate(269.43 -1087.47)"/><polygon class="cls-100" points="105.28 83.25 101.41 83.25 101.14 79.36 105.01 79.36 105.28 83.25"/><polygon class="cls-101" points="109.81 83.25 105.93 83.25 105.67 79.36 109.54 79.36 109.81 83.25"/><polygon class="cls-102" points="114.27 83.25 110.4 83.25 110.14 79.36 114.01 79.36 114.27 83.25"/><polygon class="cls-103" points="118.74 83.25 114.87 83.25 114.6 79.36 118.47 79.36 118.74 83.25"/><polygon class="cls-104" points="123.21 83.25 119.33 83.25 119.07 79.36 122.94 79.36 123.21 83.25"/><polygon class="cls-105" points="127.67 83.25 123.8 83.25 123.54 79.36 127.41 79.36 127.67 83.25"/><polygon class="cls-106" points="105.6 87.99 101.73 87.99 101.46 84.09 105.33 84.09 105.6 87.99"/><polygon class="cls-107" points="110.13 87.99 106.25 87.99 105.99 84.09 109.86 84.09 110.13 87.99"/><polygon class="cls-108" points="114.59 87.99 110.72 87.99 110.46 84.09 114.33 84.09 114.59 87.99"/><polygon class="cls-109" points="119.06 87.99 115.19 87.99 114.92 84.09 118.8 84.09 119.06 87.99"/><polygon class="cls-110" points="123.53 87.99 119.66 87.99 119.39 84.09 123.26 84.09 123.53 87.99"/><polygon class="cls-111" points="127.99 87.99 124.12 87.99 123.86 84.09 127.73 84.09 127.99 87.99"/><polygon class="cls-112" points="129.19 74.93 129.41 77.13 132.56 77.13 132.31 74.93 129.19 74.93"/><path class="cls-78" d="M-185.35,1200.77a8.83,8.83,0,0,0,7.57,4.68,8.88,8.88,0,0,0,7.56-3.92,9,9,0,0,1-7.57,4.33C-183.21,1205.86-185.35,1200.77-185.35,1200.77Z" transform="translate(269.43 -1087.47)"/><path class="cls-80" d="M-175.74,1205.24a8.59,8.59,0,0,0,3-1.23A3.32,3.32,0,0,1-175.74,1205.24Z" transform="translate(269.43 -1087.47)"/><rect class="cls-113" x="-138.65" y="1162.48" width="0.35" height="2.03" transform="translate(-655.69 -792.36) rotate(-48.96)"/><rect class="cls-113" x="-139.44" y="1163.32" width="1.88" height="0.35" transform="translate(-593.86 -844.62) rotate(-45)"/><path class="cls-114" d="M-229.34,1180c-.12.56-.27,1.08-.42,1.57h0c-1.82,5.75-5.38,6.29-7.26,15.86h-11c-1.92-9.78-5.59-10.13-7.37-16.24-.11-.37-.21-.77-.31-1.19-1.63-7.29,7-13.73,13.16-13.73S-227.71,1172.73-229.34,1180Z" transform="translate(269.43 -1087.47)"/><g class="cls-115"><path class="cls-116" d="M-242.5,1166.46c3.72,0,8.18,2.32,10.83,5.63a9.32,9.32,0,0,1,2.16,7.89,17.49,17.49,0,0,1-3.22,6.85,24.39,24.39,0,0,0-4.43,10.44h-10.69a24.39,24.39,0,0,0-4.43-10.44,17.49,17.49,0,0,1-3.22-6.85,9.32,9.32,0,0,1,2.16-7.89c2.65-3.31,7.11-5.63,10.84-5.63Zm0-.17c-6.21,0-14.8,6.44-13.17,13.73s5.64,7,7.68,17.43h11c2-10.38,6.05-10.14,7.68-17.43s-7-13.73-13.16-13.73Z" transform="translate(269.43 -1087.47)"/></g><path class="cls-117" d="M-240.16,1182.2s.39,4.42-2.27,5.24c-2.66-.82-2.26-5.24-2.26-5.24l-.59.35c.94,4.6,1.17,14,1.17,14h3.36s.24-9.4,1.18-14Z" transform="translate(269.43 -1087.47)"/><path class="cls-118" d="M-248.53,1195.12c.48,1.34,9.59,1.94,11.94.43l-.28,1.18-11.24.14Z" transform="translate(269.43 -1087.47)"/><circle class="cls-119" cx="-237.83" cy="1174.3" r="6.23" transform="matrix(0.16, -0.99, 0.99, 0.16, -1089.45, -336.03)"/><path class="cls-120" d="M-249.19,1180.4c1.21,3,.93,5.89-.63,6.53s-3.8-1.25-5-4.22-.93-5.89.63-6.53S-250.4,1177.43-249.19,1180.4Z" transform="translate(269.43 -1087.47)"/><path class="cls-121" d="M-229.76,1181.59c-1.82,5.75-5.38,6.29-7.26,15.86h-11c-1.92-9.78-5.59-10.13-7.37-16.24,2.08,4.45,7,6.16,14.92,5.86S-229.76,1181.59-229.76,1181.59Z" transform="translate(269.43 -1087.47)"/><path class="cls-122" d="M-249.13,1197.05l.83,7.74s3.85-1,11.4,0l1.05-7.36A27.68,27.68,0,0,0-249.13,1197.05Z" transform="translate(269.43 -1087.47)"/><path class="cls-123" d="M-248.3,1204.79a23.7,23.7,0,0,0,11.4,0S-243.56,1203.36-248.3,1204.79Z" transform="translate(269.43 -1087.47)"/><path class="cls-124" d="M-246.24,1204.79l.55,1.1a15,15,0,0,0,6.12,0l.55-1.06A15.16,15.16,0,0,0-246.24,1204.79Z" transform="translate(269.43 -1087.47)"/><path class="cls-75" d="M-245.69,1205.89a13.49,13.49,0,0,1,6.12,0A15.72,15.72,0,0,1-245.69,1205.89Z" transform="translate(269.43 -1087.47)"/><path class="cls-125" d="M-248.4,1203.87l-1-.95a26.59,26.59,0,0,1,14-2.8l-1.05,1.59S-242.92,1200.05-248.4,1203.87Z" transform="translate(269.43 -1087.47)"/><path class="cls-126" d="M-248.71,1201l-.73-.59s5.3-4.27,14.55-3.57l-1.1,1.6A16.58,16.58,0,0,0-248.71,1201Z" transform="translate(269.43 -1087.47)"/><path class="cls-127" d="M-249.44,1200.38l.58-.77s7.28-4.13,14-2.8A22.46,22.46,0,0,0-249.44,1200.38Z" transform="translate(269.43 -1087.47)"/><path class="cls-128" d="M-249.44,1202.92l.83-1a28.81,28.81,0,0,1,12.41-2.08l.79.25A28.18,28.18,0,0,0-249.44,1202.92Z" transform="translate(269.43 -1087.47)"/><path class="cls-129" d="M-249.44,1202.92l1,.95.1.63s1.74-2.39,6-2.83,5.7,1.25,5.7,1.25l.17-1.21,1.05-1.59S-243.39,1199.75-249.44,1202.92Z" transform="translate(269.43 -1087.47)"/><path class="cls-129" d="M-249.44,1200.38l.73.59.1,1s1.35-2.69,6-3.37,6.5.85,6.5.85l.14-1,1.1-1.6A22.61,22.61,0,0,0-249.44,1200.38Z" transform="translate(269.43 -1087.47)"/><path class="cls-130" d="M-253.47,1129.58c8.22,4.82,23.87,15.52,23.87,15.52l.3-.48L-212,1155.3l-.29.47,1,.6,4.79.15.39-.63.38-.62-2.27-4.22-1-.59-.29.47-17.27-10.68.29-.47s-16.58-9.22-24.56-14.41a5.86,5.86,0,0,0-2,1.68A5.88,5.88,0,0,0-253.47,1129.58Z" transform="translate(269.43 -1087.47)"/><path class="cls-131" d="M-212.32,1155.77l-.44.15a142.42,142.42,0,0,0-16.94-10.46,16.62,16.62,0,0,1,3.51-6A191.38,191.38,0,0,0-209,1150.09l-.07.37A46.2,46.2,0,0,1-212.32,1155.77Z" transform="translate(269.43 -1087.47)"/><path class="cls-132" d="M-206.47,1156.35l.92.57a.49.49,0,0,0,.65-.21h0a.49.49,0,0,0-.1-.68l-.92-.56Z" transform="translate(269.43 -1087.47)"/><path class="cls-75" d="M-229.87,1144.91a16.12,16.12,0,0,1,2.84-5.53l.59.36a14.7,14.7,0,0,0-3.16,5.36Z" transform="translate(269.43 -1087.47)"/><path class="cls-133" d="M-253.37,1128.58c.13-.63,22.81,14.32,23.38,14.66s.23,1.29.23,1.29a23.49,23.49,0,0,1,1-2.54s-.71.86-1.12.74-22.75-14.32-23-14.6a1.49,1.49,0,0,1-.15-.91A5.93,5.93,0,0,0-253.37,1128.58Z" transform="translate(269.43 -1087.47)"/><path class="cls-134" d="M-249.49,1132a9.94,9.94,0,0,1,2.57-4.15l-.24-.15a7.93,7.93,0,0,0-2.59,4.13Z" transform="translate(269.43 -1087.47)"/><path class="cls-135" d="M-211.36,1156.37a10.51,10.51,0,0,0,3.29-5.32l2.27,4.22-.77,1.25Z" transform="translate(269.43 -1087.47)"/><path class="cls-136" d="M-213.83,1154.65a3.88,3.88,0,0,0,.89-1.05l-11.71-7.24-.59,1S-218.64,1151.6-213.83,1154.65Z" transform="translate(269.43 -1087.47)"/><path class="cls-137" d="M-213.64,1154.48l-5.47-3.38v-.38l-.34.17-5.7-3.7.51-.83,11.71,7.24A2.66,2.66,0,0,1-213.64,1154.48Z" transform="translate(269.43 -1087.47)"/><polygon class="cls-138" points="44.77 58.89 50.41 62.64 49.97 63.42 50.31 63.26 50.31 63.64 50.81 62.84 56.48 66.13 44.77 58.89"/><path class="cls-139" d="M-86.43,1208.94H-93.8l-1.18,3.48h-5l7.15-19.74h5.57l7.14,19.74h-5.09Zm-1.24-3.72-2.45-7.23-2.41,7.23Z" transform="translate(269.43 -1087.47)"/><path class="cls-140" d="M-89.78,1208.77h-7.71l-1.24,3.65H-104l7.48-20.67h5.83l7.48,20.67h-5.33Zm-1.29-3.89-2.56-7.57-2.54,7.57Z" transform="translate(269.43 -1087.47)"/><polygon class="cls-141" points="178.74 104.28 182.12 105.21 189.27 124.95 186.22 124.95 178.74 104.28"/><path class="cls-142" d="M-79.56,1200.05a6.9,6.9,0,0,1,2.55-2.88c1.07-.67.2-1.42,1.52-1.42a17.51,17.51,0,0,1,5,1.11,5.08,5.08,0,0,1,2,1.81v-2.27h4.91v16h-4.91v-2.27a5.32,5.32,0,0,1-2,1.81c-.85.46-4.55.69-5.68.69-1.31,0,.22-.34-.85-1a7,7,0,0,1-2.55-2.9,9.75,9.75,0,0,1-.93-4.36A9.58,9.58,0,0,1-79.56,1200.05Zm10.06,1.46a3.31,3.31,0,0,0-2.49-1.06,3.33,3.33,0,0,0-2.48,1,4,4,0,0,0-1,2.88,4.07,4.07,0,0,0,1,2.92,3.29,3.29,0,0,0,2.48,1.08,3.32,3.32,0,0,0,2.49-1.07,4,4,0,0,0,1-2.9A4,4,0,0,0-69.5,1201.51Z" transform="translate(269.43 -1087.47)"/><path class="cls-143" d="M-82.42,1199.73a7.14,7.14,0,0,1,2.6-3,6.8,6.8,0,0,1,3.69-1,6.39,6.39,0,0,1,3,.71,5.22,5.22,0,0,1,2,1.85V1196h5v16.43h-5v-2.32a5.46,5.46,0,0,1-2,1.85,6.36,6.36,0,0,1-3,.71,6.68,6.68,0,0,1-3.66-1.05,7.2,7.2,0,0,1-2.6-3,9.92,9.92,0,0,1-1-4.46A9.79,9.79,0,0,1-82.42,1199.73Zm10.31,1.5a3.4,3.4,0,0,0-2.55-1.09,3.42,3.42,0,0,0-2.55,1.08,4,4,0,0,0-1,3,4.17,4.17,0,0,0,1,3,3.41,3.41,0,0,0,2.55,1.1,3.4,3.4,0,0,0,2.55-1.09,4.16,4.16,0,0,0,1-3A4.15,4.15,0,0,0-72.11,1201.23Z" transform="translate(269.43 -1087.47)"/><polygon class="cls-144" points="203.4 108.52 205.86 108.93 205.86 124.96 203.4 124.95 203.4 108.52"/><polygon class="cls-145" points="171.93 121.3 175.03 123.21 175.69 121.3 171.93 121.3"/><polygon class="cls-145" points="174.53 113.63 177.23 116.74 177.68 115.41 175.79 109.84 174.53 113.63"/><path class="cls-145" d="M-77.66,1201.87l2.35,1.11a3.33,3.33,0,0,1,2.36-2.41A3.64,3.64,0,0,0-77.66,1201.87Z" transform="translate(269.43 -1087.47)"/><ellipse class="cls-146" cx="27.26" cy="87.9" rx="27.26" ry="26.11"/><ellipse class="cls-147" cx="27.26" cy="87.9" rx="15.37" ry="14.73"/><path class="cls-148" d="M-167.71,1216.69c0,1.39-19.75,2.51-44.1,2.51s-44.11-1.12-44.11-2.51,19.75-2.51,44.11-2.51S-167.71,1215.3-167.71,1216.69Z" transform="translate(269.43 -1087.47)"/><path class="cls-149" d="M-180,1216.69c0,.78-14.23,1.42-31.78,1.42s-31.79-.64-31.79-1.42,14.23-1.42,31.79-1.42S-180,1215.91-180,1216.69Z" transform="translate(269.43 -1087.47)"/><path class="cls-150" d="M-235.89,1209.68l3.33,6.71,37.34.83a22.83,22.83,0,0,0,1.29-1.92c-.08-2.93-2.53-11-13.94-13.22C-221.26,1199.42-235.89,1209.68-235.89,1209.68Z" transform="translate(269.43 -1087.47)"/><path class="cls-151" d="M-235.89,1209.68c24.18-10,17.77,10,41.88,5,0,0-1-11.39-16.73-12.87C-224.51,1200.55-235.89,1209.68-235.89,1209.68Z" transform="translate(269.43 -1087.47)"/><path class="cls-75" d="M-232.56,1216.39c9.74,0,27-.35,32.15-.89s6.48-.2,6.48-.2l-1.29,1.92Z" transform="translate(269.43 -1087.47)"/><path class="cls-152" d="M-234.75,1211.67s5-2.3,12.52-.32,11.65,3.66,12.09,4.12-.54.82-.54.82l9-.66s-2.35.4-8.24-1.64-9.79-10.54-25.93-4.31Z" transform="translate(269.43 -1087.47)"/><g class="cls-153"><path class="cls-154" d="M-200.29,1215.78a34,34,0,0,1-7.09-.79c-2.33-.49-4.16-1.9-6.09-3.38-4.41-3.38-9.4-7.2-22.35-1.77l-.14-.32c13.14-5.52,18.22-1.62,22.7,1.81,1.9,1.46,3.7,2.84,5.95,3.32,8.53,1.81,13.18-.09,13.23-.11l.13.33A18.18,18.18,0,0,1-200.29,1215.78Z" transform="translate(269.43 -1087.47)"/></g><path class="cls-154" d="M-233.88,1209.62a15,15,0,0,1,9.93-2.62,16.85,16.85,0,0,1,5.08,1.27,21,21,0,0,1,4.47,2.72,26.36,26.36,0,0,0,4.34,2.88,16.27,16.27,0,0,0,2.43.94,18.34,18.34,0,0,0,2.55.54,30.22,30.22,0,0,0,5.21.24c1.74-.06,3.48-.22,5.21-.43a38.84,38.84,0,0,1-10.44.31,20.59,20.59,0,0,1-2.57-.54,15.47,15.47,0,0,1-2.45-.94,25.76,25.76,0,0,1-4.38-2.86,21.26,21.26,0,0,0-4.43-2.72,16.48,16.48,0,0,0-5-1.28,15,15,0,0,0-5.17.39A14,14,0,0,0-233.88,1209.62Z" transform="translate(269.43 -1087.47)"/><path class="cls-155" d="M-218.62,1202.65l2.11-.27s-4.8-2.25-8.47.17A10.24,10.24,0,0,1-218.62,1202.65Z" transform="translate(269.43 -1087.47)"/><g class="cls-153"><path class="cls-154" d="M-231,1207l-.08-.15c8.38-4.49,14-4.75,18.39-4.41v.17C-217,1202.26-222.61,1202.52-231,1207Z" transform="translate(269.43 -1087.47)"/></g><path class="cls-156" d="M-228.06,1205.39s3.33-5.65,9.44-2.74A44.34,44.34,0,0,0-228.06,1205.39Z" transform="translate(269.43 -1087.47)"/><g class="cls-153"><path class="cls-154" d="M-223,1207.08l-.1-.15c.09-.06,9.42-6.5,17.2-4.48l0,.17C-213.69,1200.62-222.95,1207-223,1207.08Z" transform="translate(269.43 -1087.47)"/></g><path class="cls-157" d="M-211.32,1202.75a18.49,18.49,0,0,1,12.95,8.57h1a18.44,18.44,0,0,0-13.42-8.65Z" transform="translate(269.43 -1087.47)"/><path class="cls-158" d="M-224,1202a7.77,7.77,0,0,1,6.47.49l.6-.09S-220.69,1200.61-224,1202Z" transform="translate(269.43 -1087.47)"/><ellipse class="cls-159" cx="-221.83" cy="1205.4" rx="7.25" ry="2.4" transform="translate(71.5 -1107.48) rotate(-9.31)"/><path class="cls-160" d="M-230.91,1208.56l1.22,1.08s5.8-1.19,10.64,1l1.54-1S-223.86,1206-230.91,1208.56Z" transform="translate(269.43 -1087.47)"/><g class="cls-153"><rect class="cls-154" x="-224.47" y="1207.48" width="0.35" height="1.94" transform="translate(165.06 -1102.24) rotate(-4.92)"/></g></g></g></svg>