<svg id="Layer_1" data-name="Layer 1" xmlns="http://www.w3.org/2000/svg" viewBox="0 0 13.45 14.32"><defs><style>.cls-1{fill:#805cec;}</style></defs><path class="cls-1" d="M-63.68,1139.13a.32.32,0,0,0,0-.07,1.25,1.25,0,0,1,.72-.37H-66.3a1.82,1.82,0,0,1,1,.37v1.48a.89.89,0,0,1-.3.72,1.36,1.36,0,0,1-.88.25,1.17,1.17,0,0,1-1.12-.53,8.19,8.19,0,0,1-.3-2.94c0-1.13,0-1.89,0-2.27a3.07,3.07,0,0,1,.19-.88,1.23,1.23,0,0,1,.52-.6,1.86,1.86,0,0,1,.91-.19,2.15,2.15,0,0,1,1.33.47,2.25,2.25,0,0,1,.84,1.32l0-1.14c0-.11,0-.08,0-.18v-.16l-.11-.05-.26-.13-.15-.07-.34-.13c-.12-.06-.24-.1-.34-.14a3.41,3.41,0,0,0-1-.15,3.51,3.51,0,0,0-1.36.27,2.79,2.79,0,0,0-1.12.91,2.9,2.9,0,0,0-.61.93,1.12,1.12,0,0,0-.08.26l-1.69-4.26a1.6,1.6,0,0,0-1.5-1,2.5,2.5,0,0,0-.46,0c.39,0,.93.33,1.12,1.54l-2.12,5.36a2.74,2.74,0,0,1-.31.66,2.11,2.11,0,0,1-.76.33h2.44c-.79,0-1-.34-1.06-.45s0-.26,0-.31a.53.53,0,0,1,0-.11l.49-1.34h2.38s.66,1.8.66,1.82l.1.25a13.31,13.31,0,0,0,1.15,2,2.25,2.25,0,0,0,.37.49,2.11,2.11,0,0,0,.23.19,3.08,3.08,0,0,0,.93.45,3.78,3.78,0,0,0,1.09.15,4.84,4.84,0,0,0,1.05-.11c1.21,4.82,3.31,3.18,3.55,2.63C-64.11,1146.4-63.74,1140-63.68,1139.13Zm-9.31-3.38,1.09-2.74,1,2.74Z" transform="translate(75.22 -1130.8)"/></svg>