<svg id="Layer_1" data-name="Layer 1" xmlns="http://www.w3.org/2000/svg" viewBox="0 0 35.56 30"><defs><style>.cls-1{fill:#fff;}</style></defs><path class="cls-1" d="M-851.86,977.06c-2.75-6.65-9.78.55-13.47-3-.76-.73,2.05-4.66-.29-6.85s-9.31-1.93-14.06,2.74c-9,8.81-8.34,16.87-5.78,20.63,2.71,4,10.93,9.08,25.4,1.09C-854.53,988.65-850.4,980.61-851.86,977.06Zm-28.92-3.44a5,5,0,0,1,1-1.78c.71-.79,1.17-.15,1.88-.41.35-.14.4-.53.84-.41a.85.85,0,0,1,.59.73,3.51,3.51,0,0,0,.05.8c.14.43.61.47.93.71a1.33,1.33,0,0,1,.47,1.1,1.21,1.21,0,0,1-.58,1,3.89,3.89,0,0,1-.83.21,3,3,0,0,0-1.23,1,4.22,4.22,0,0,1-1.18,1.1,1,1,0,0,1-1.37-.28,1.92,1.92,0,0,1-.1-1.63c.08-.24.16-.58,0-.71a.73.73,0,0,0-.21-.06.67.67,0,0,1-.37-.6A1.75,1.75,0,0,1-880.78,973.62Zm-2.49,12.93a1.1,1.1,0,0,1-1.67-.22,2.44,2.44,0,0,1-.23-2.16,2.75,2.75,0,0,0,.29-1,4.35,4.35,0,0,0-.22-.86,3.07,3.07,0,0,1,.52-2.21c.19-.34.48-.74.86-.64s.35.51.57.64c.56.33.43-.92,1.2-.69a1,1,0,0,1,.59.72,3.65,3.65,0,0,0,.14.5c.27.48.89.2,1.33.41s.62,1,.51,1.65-.48,1.34-1,1.45-1-.25-1.42-.07C-882.63,984.34-882.61,985.87-883.27,986.55Zm10,6a2.29,2.29,0,0,1-1,1,1.57,1.57,0,0,1-1.67.13c-.62-.45-.93-1.62-1.64-1.61-.4,0-.71.4-1,.66a1.86,1.86,0,0,1-1.83.31,2.46,2.46,0,0,1-1.37-1.54,1.7,1.7,0,0,1-.1-.83,1.39,1.39,0,0,1,.82-1A4.31,4.31,0,0,0-880,989a3.91,3.91,0,0,0,.74-1.35c.36-.86,1.28-1.94,2-.92.41.58.18,2.1,1.16,1.67.29-.12.53-.38.82-.48a.55.55,0,0,1,.74.41c.06.45-.41.76-.47,1.21a1,1,0,0,0,.66,1,2.07,2.07,0,0,1,1,.53A1.53,1.53,0,0,1-873.29,992.54Zm1.64-19.06a1.37,1.37,0,0,1-.62-1.17,1.23,1.23,0,0,0-.09-.7c-.17-.25-.5-.12-.76-.18-.42-.1-.65-.75-.52-1.26a1.7,1.7,0,0,1,.89-1.09c.39-.22.82-.32,1.22-.51a.29.29,0,0,0,.16-.15c.15-.45-.1-.67.35-.94a1.42,1.42,0,0,1,.89,0c.24,0,.73,0,.92.18s0,.79.2,1.19.66.32.94.6a1,1,0,0,1,0,1.11,1.17,1.17,0,0,1-.87.5,1.79,1.79,0,0,0-.61.12c-.61.33-.57,1.48-1,2.07A.85.85,0,0,1-871.65,973.48Zm7.54,17.54c-.52.63-1.13,1.28-1.86,1.3-.48,0-.94-.28-1.42-.22a5.65,5.65,0,0,0-1.29.57,1.53,1.53,0,0,1-1.79-.45,2,2,0,0,1-.11-2.17c.24-.32.62-.56.65-1,0-.14,0-.27,0-.4a1.12,1.12,0,0,1,.27-.67c.67-.88,1.26-.24,2-.21s.89-1.25,1.76-1a1.11,1.11,0,0,1,.71.88,2.59,2.59,0,0,0,.09.4,1,1,0,0,0,.68.49,1.38,1.38,0,0,1,.9,1.1A2,2,0,0,1-864.11,991Zm-1.17-10.09a2.19,2.19,0,0,1-1.92-2.39,2.19,2.19,0,0,1,1.92-2.39,2.19,2.19,0,0,1,1.91,2.39A2.19,2.19,0,0,1-865.28,980.93Zm8.71,5.41a1.22,1.22,0,0,1-1.41.44,1.6,1.6,0,0,0-.5-.26c-.35,0-.62.4-.72.83a3.55,3.55,0,0,1-.34,1.25,1.22,1.22,0,0,1-1.3.4,1.2,1.2,0,0,1-1-.85c-.17-.79.65-1.47.55-2.28a6.18,6.18,0,0,0-.27-.83,1.59,1.59,0,0,1,.61-1.65c.57-.35,1,.22,1.48.07s.28-1.15.47-1.27c.56-.36,1.36.21,1.39,1,0,.32-.05.72.16.9a.53.53,0,0,0,.39.06,1,1,0,0,1,1,.55A1.61,1.61,0,0,1-856.57,986.34Z" transform="translate(887.12 -965.93)"/></svg>