<svg id="Layer_1" data-name="Layer 1" xmlns="http://www.w3.org/2000/svg" viewBox="0 0 30 30"><defs><style>.cls-1{fill:#fff;}</style></defs><path class="cls-1" d="M-839.73,988.17a9.3,9.3,0,0,0,9.09,9.48,9.3,9.3,0,0,0,9.48-9.09,9.31,9.31,0,0,0-9.09-9.49A9.31,9.31,0,0,0-839.73,988.17Zm14.18-2.85a5.68,5.68,0,0,1-2,7.77,5.67,5.67,0,0,1-7.82-2.1,5.73,5.73,0,0,1,2-7.6A5.68,5.68,0,0,1-825.55,985.32Z" transform="translate(845.45 -973.36)"/><path class="cls-1" d="M-815.52,989.83a14.72,14.72,0,0,0,0-3.25l-2.53-.61a12.9,12.9,0,0,0-.56-2l1.86-1.83c-.23-.49-.48-1-.76-1.45a15.83,15.83,0,0,0-.9-1.35l-2.5.74a12.31,12.31,0,0,0-1.46-1.43l.69-2.51a15,15,0,0,0-2.84-1.6l-1.79,1.9a11.52,11.52,0,0,0-2-.51l-.66-2.53a15.35,15.35,0,0,0-3.25,0l-.61,2.53a12.59,12.59,0,0,0-2,.56l-1.83-1.86a15.47,15.47,0,0,0-1.45.76,13.77,13.77,0,0,0-1.35.9l.74,2.5a12.31,12.31,0,0,0-1.43,1.46l-2.51-.69a15.23,15.23,0,0,0-1.6,2.83l1.89,1.8a12,12,0,0,0-.5,2l-2.52.66a14.72,14.72,0,0,0,0,3.25l2.53.61a14.1,14.1,0,0,0,.55,2l-1.85,1.83a14.08,14.08,0,0,0,.75,1.44,14.63,14.63,0,0,0,.91,1.36l2.5-.74a12.31,12.31,0,0,0,1.46,1.43l-.69,2.51a15.18,15.18,0,0,0,2.83,1.59l1.8-1.89a11.07,11.07,0,0,0,2,.51l.66,2.52a15.36,15.36,0,0,0,3.25,0l.6-2.53a12.28,12.28,0,0,0,2-.56l1.84,1.85a12.33,12.33,0,0,0,1.44-.75,14.56,14.56,0,0,0,1.36-.9l-.74-2.5a12.31,12.31,0,0,0,1.43-1.46l2.51.69a14.42,14.42,0,0,0,1.59-2.84l-1.89-1.79a12,12,0,0,0,.51-2Zm-15.13,8.22a9.71,9.71,0,0,1-9.49-9.89,9.71,9.71,0,0,1,9.9-9.49,9.7,9.7,0,0,1,9.48,9.9A9.7,9.7,0,0,1-830.65,998.05Z" transform="translate(845.45 -973.36)"/></svg>